<svg version="1.1" xmlns="http://www.w3.org/2000/svg" xmlns:xlink="http://www.w3.org/1999/xlink" width="488.07057" height="316.5156" viewBox="0,0,488.07057,316.5156"><defs><linearGradient x1="240.01855" y1="224.73899" x2="240.01855" y2="240.73899" gradientUnits="userSpaceOnUse" id="color-1"><stop offset="0" stop-color="#713f10"/><stop offset="1" stop-color="#2c1506"/></linearGradient><linearGradient x1="240.01855" y1="224.73899" x2="240.01855" y2="240.73899" gradientUnits="userSpaceOnUse" id="color-2"><stop offset="0" stop-color="#422300"/><stop offset="1" stop-color="#270c00"/></linearGradient><linearGradient x1="245.29558" y1="293.10187" x2="245.4659" y2="309.10096" gradientUnits="userSpaceOnUse" id="color-3"><stop offset="0" stop-color="#713f10"/><stop offset="1" stop-color="#2c1506"/></linearGradient><linearGradient x1="245.29558" y1="293.10187" x2="245.4659" y2="309.10096" gradientUnits="userSpaceOnUse" id="color-4"><stop offset="0" stop-color="#422300"/><stop offset="1" stop-color="#270c00"/></linearGradient><linearGradient x1="240.01855" y1="224.73899" x2="240.01855" y2="240.73899" gradientUnits="userSpaceOnUse" id="color-5"><stop offset="0" stop-color="#713f10"/><stop offset="1" stop-color="#2c1506"/></linearGradient><linearGradient x1="240.01855" y1="224.73899" x2="240.01855" y2="240.73899" gradientUnits="userSpaceOnUse" id="color-6"><stop offset="0" stop-color="#422300"/><stop offset="1" stop-color="#270c00"/></linearGradient><linearGradient x1="240.01855" y1="224.73899" x2="240.01855" y2="240.73899" gradientUnits="userSpaceOnUse" id="color-7"><stop offset="0" stop-color="#713f10"/><stop offset="1" stop-color="#2c1506"/></linearGradient><linearGradient x1="240.01855" y1="224.73899" x2="240.01855" y2="240.73899" gradientUnits="userSpaceOnUse" id="color-8"><stop offset="0" stop-color="#422300"/><stop offset="1" stop-color="#270c00"/></linearGradient><linearGradient x1="217.01018" y1="296.21085" x2="217.01018" y2="312.21085" gradientUnits="userSpaceOnUse" id="color-9"><stop offset="0" stop-color="#713f10"/><stop offset="1" stop-color="#2c1506"/></linearGradient><linearGradient x1="217.01018" y1="296.21085" x2="217.01018" y2="312.21085" gradientUnits="userSpaceOnUse" id="color-10"><stop offset="0" stop-color="#422300"/><stop offset="1" stop-color="#270c00"/></linearGradient><linearGradient x1="455.82057" y1="-0.14322" x2="455.82057" y2="140.29022" gradientUnits="userSpaceOnUse" id="color-11"><stop offset="0" stop-color="#713f10"/><stop offset="1" stop-color="#2c1506"/></linearGradient><linearGradient x1="455.82057" y1="-0.14322" x2="455.82057" y2="140.29022" gradientUnits="userSpaceOnUse" id="color-12"><stop offset="0" stop-color="#422300"/><stop offset="1" stop-color="#270c00"/></linearGradient><linearGradient x1="396.15448" y1="162.83049" x2="396.15448" y2="202.86286" gradientUnits="userSpaceOnUse" id="color-13"><stop offset="0" stop-color="#2c2c2c"/><stop offset="1" stop-color="#2b1306"/></linearGradient><linearGradient x1="309.05033" y1="188.53137" x2="309.05033" y2="217.53137" gradientUnits="userSpaceOnUse" id="color-14"><stop offset="0" stop-color="#703510"/><stop offset="1" stop-color="#2b1306"/></linearGradient><linearGradient x1="309.05033" y1="188.53137" x2="309.05033" y2="217.53137" gradientUnits="userSpaceOnUse" id="color-15"><stop offset="0" stop-color="#422300"/><stop offset="1" stop-color="#270c00"/></linearGradient><linearGradient x1="345.75965" y1="188.6866" x2="345.75965" y2="217.6866" gradientUnits="userSpaceOnUse" id="color-16"><stop offset="0" stop-color="#703010"/><stop offset="1" stop-color="#2b1306"/></linearGradient><linearGradient x1="345.75965" y1="188.6866" x2="345.75965" y2="217.6866" gradientUnits="userSpaceOnUse" id="color-17"><stop offset="0" stop-color="#422300"/><stop offset="1" stop-color="#270c00"/></linearGradient><linearGradient x1="326.82764" y1="154.64238" x2="326.82764" y2="183.64239" gradientUnits="userSpaceOnUse" id="color-18"><stop offset="0" stop-color="#703010"/><stop offset="1" stop-color="#2b1306"/></linearGradient><linearGradient x1="326.82764" y1="154.64238" x2="326.82764" y2="183.64239" gradientUnits="userSpaceOnUse" id="color-19"><stop offset="0" stop-color="#422300"/><stop offset="1" stop-color="#270c00"/></linearGradient><linearGradient x1="251.60753" y1="256.38186" x2="251.60753" y2="285.38186" gradientUnits="userSpaceOnUse" id="color-20"><stop offset="0" stop-color="#703010"/><stop offset="1" stop-color="#2b1306"/></linearGradient><linearGradient x1="251.60753" y1="256.38186" x2="251.60753" y2="285.38186" gradientUnits="userSpaceOnUse" id="color-21"><stop offset="0" stop-color="#422300"/><stop offset="1" stop-color="#270c00"/></linearGradient></defs><g transform="translate(1.75,3.3932)"><g data-paper-data="{&quot;isPaintingLayer&quot;:true}" fill-rule="nonzero" stroke-linecap="butt" stroke-linejoin="miter" stroke-miterlimit="10" stroke-dasharray="" stroke-dashoffset="0" style="mix-blend-mode: normal"><path d="M3,240.73899v-16h198.49567c0.1007,0.21575 0.20933,0.42691 0.32583,0.63256c0.8725,1.54021 3.07324,2.06227 3.85861,3.64869c0.31578,0.63787 -1.19291,1.07677 -1.16712,1.78805c0.03279,0.90431 1.78215,1.59644 1.31805,2.37327c-0.87785,1.46938 -3.88367,1.07087 -4.35818,2.71542c-0.4413,1.52947 -0.57753,3.20182 -0.41608,4.84202z" fill="url(#color-1)" stroke="url(#color-2)" stroke-width="9.5"/><path d="M313.90432,308.3724l-94.64395,-0.5503c0.53016,-0.92429 1.1211,-0.3485 1.43394,-1.35873c0.32921,-1.06312 -0.05371,-2.231 0.05835,-3.33828c0.30183,-2.98227 0.29852,-5.87341 0.48154,-8.87815c0.01805,-0.29639 0.04856,-0.59306 0.0872,-0.88985c0,0 9.14781,-0.09738 16.55826,-0.17627c15.13476,-0.16112 69.06795,-0.73527 69.06795,-0.73527c-0.03137,1.09199 0.0431,2.11132 0.2749,2.94382c1.49298,5.36207 3.29081,4.24746 6.7695,8.35671c0.89837,1.06122 0.52856,2.48969 0.53617,3.77826c-0.25729,0.24684 -0.47343,0.5234 -0.62385,0.84806z" fill="url(#color-3)" stroke="url(#color-4)" stroke-width="9.5"/><path d="M312.52109,229.04008c0.04676,0.22426 -0.00601,0.42705 -0.11742,0.618c-0.3369,-0.26418 -0.6739,-0.52697 -0.99719,-0.79648c0.53071,-0.11216 1.02937,-0.23033 1.11462,0.17848z" fill="url(#color-5)" stroke="url(#color-6)" stroke-width="9.5"/><path d="M477.03711,224.73899v16h-157.8038c0.31291,-0.7491 0.48038,-1.72913 0.49956,-3.11979c0.02673,-1.93773 -1.3622,-3.70284 -1.41004,-5.64016c-0.04868,-1.97189 1.81722,-3.96117 1.12735,-5.80909c-0.23861,-0.63914 -0.73152,-1.07414 -1.32715,-1.43096z" fill="url(#color-7)" stroke="url(#color-8)" stroke-width="9.5"/><path d="" data-paper-data="{&quot;index&quot;:null}" fill="url(#color-9)" stroke="url(#color-10)" stroke-width="9.5"/><path d="M428.57057,140.29022v-140.43342h54.5v140.43343z" fill="url(#color-11)" stroke="url(#color-12)" stroke-width="6.5"/><path d="" fill="url(#color-13)" stroke="none" stroke-width="0"/><path d="" fill="#2c2c2c" stroke="none" stroke-width="0"/><g stroke-width="1"><path d="" fill="none" stroke="#886739"/><path d="" fill="none" stroke="#886739"/><path d="" fill="none" stroke="#886739"/><path d="" fill="none" stroke="#886739"/><path d="" fill="#a87734" stroke="#644c2a"/></g><path d="M295.30033,217.53137v-29h27.5v29z" fill="url(#color-14)" stroke="url(#color-15)" stroke-width="6"/><path d="M332.00965,217.6866v-29h27.5v29z" data-paper-data="{&quot;index&quot;:null}" fill="url(#color-16)" stroke="url(#color-17)" stroke-width="6"/><path d="M313.07764,183.64239v-29h27.5v29z" data-paper-data="{&quot;index&quot;:null}" fill="url(#color-18)" stroke="url(#color-19)" stroke-width="6"/><path d="M237.85753,285.38186v-29h27.5v29z" data-paper-data="{&quot;index&quot;:null}" fill="url(#color-20)" stroke="url(#color-21)" stroke-width="6"/></g></g></svg>