<svg version="1.1" xmlns="http://www.w3.org/2000/svg" xmlns:xlink="http://www.w3.org/1999/xlink" width="63.71934" height="33.07024" viewBox="0,0,63.71934,33.07024"><g transform="translate(-212.49635,-163.75837)"><g data-paper-data="{&quot;isPaintingLayer&quot;:true}" fill-rule="nonzero" stroke="none" stroke-width="0.5" stroke-linecap="butt" stroke-linejoin="miter" stroke-miterlimit="10" stroke-dasharray="" stroke-dashoffset="0" style="mix-blend-mode: normal"><path d="M251.10559,166.27543c0,1.23362 -2.90371,1.50843 -5.37363,1.39759c0.15409,1.63811 0.18601,3.54251 0.09795,4.815c10.34062,0.54126 20.74229,3.38594 24.87383,14.14123c0.93309,2.42903 1.28541,4.67815 1.4962,7.18005c0.77592,0 1.55185,0 2.32777,0h0.18797c0,0 1.5,0 1.5,1.5c0,1.5 -1.5,1.5 -1.5,1.5c-3.3208,0 -6.82957,0 -10.15038,0c-16.91672,0 -33.95978,0.34625 -50.76216,-1.89286c0,0 -1.48684,-0.19825 -1.2886,-1.68509c0.19825,-1.48684 1.68509,-1.2886 1.68509,-1.2886c0.31164,0.04157 0.62336,0.08225 0.93516,0.12204l0.00976,-1.26485c1.68287,-12.71859 14.95044,-18.41921 26.30045,-18.41921c0.48136,0 0.96487,0.00336 1.44984,0.01067c-0.18765,-1.02176 -0.15531,-2.1771 -0.16175,-3.1376c-0.00443,-0.66035 0.571,-1.82782 -0.07163,-1.97979c-2.06948,-0.48937 -4.25384,0.05591 -6.37966,0c-1.91239,-0.05029 -1.9145,-2.9584 0,-3c2.81022,-0.06106 5.9816,-1.18629 8.45564,0.09285c2.81201,-0.2671 6.36814,0.61955 6.36814,1.90858z" fill="#2b2b2b"/><path d="M245.591,182.55244l0.03727,0.0516l0.06482,0.16206l0.08872,0.1183l0.01654,0.03928l0.03154,0.02867l0.1385,0.20776l0.06739,0.18868l0.10756,0.16903l0.02249,0.06746l0.00549,0.00314l0.01045,0.0418l0.01869,0.03738l0.07477,0.33645l0.08359,0.33437v0.0418l0.00935,0.04206l-0.00935,0.01402v0.20223l0.02447,0.09786v0.03093l0.03045,0.13701l0.08359,0.33437v0.0418l0.00935,0.04206l-0.00935,0.01402v0.98248l0.01077,0.14002l0.05848,0.23393v0.30891l0.05418,0.37923l-0.00091,0.00884l0.00165,0.00743l0.08359,0.33437v0.0418l0.00935,0.04206l-0.00744,0.01117l0.04694,0.28165l-0.01,0.12497l0.03041,0.12163v0.59559l0.01077,0.14002l0.05848,0.23393v0.03359l0.06153,0.18459l0.01849,0.24042l0.05848,0.23393v0.55402l-0.1875,0.75l-0.35795,0.20455l-0.20455,0.35795l-0.75,0.1875h-0.83102l-0.12163,-0.03041l-0.12497,0.01l-0.39831,-0.06639l-0.30764,-0.04395l-0.00238,0.00158l-0.02425,-0.00539l-0.0277,-0.00396h-0.0319l-0.04254,-0.01063l-0.03109,-0.00444l-0.02116,-0.00862l-0.1614,-0.04035l-0.00621,0.00414l-0.04206,-0.00935h-0.0418l-0.27701,-0.06925h-0.20776l-0.23393,-0.05848l-0.14002,-0.01077h-0.11082l-0.17914,-0.04479h-0.18466l-0.09786,-0.02447h-0.57711l-0.17914,-0.04479h-0.18466l-0.09786,-0.02447h-0.50786l-0.17914,-0.04479h-0.18466l-0.27701,-0.06925l-0.35802,-0.19094l-0.11671,-0.00648l-0.08804,-0.10272l-0.11937,-0.06366l-0.03165,-0.11252l-0.26406,-0.30807l-0.02548,-0.05097l-0.01463,-0.00836l-0.01045,-0.0418l-0.01869,-0.03738l-0.07477,-0.33645l-0.08359,-0.33437v-0.0418l-0.00935,-0.04206l0.00935,-0.01402v-0.6639l0.04479,-0.17914v-0.18466l0.20776,-0.83102l0.02768,-0.0519l0.00451,-0.05864l0.09719,-0.29157l0.00913,-0.0365v-0.18466l0.06925,-0.27701l0.1208,-0.2265l0.04541,-0.12715l0.03479,-0.25515l0.12213,-0.30533l0.05531,-0.16594l0.12945,-0.20343l0.09357,-0.22223l0.04254,-0.05673l0.10005,-0.1876l0.08634,-0.24175l0.0867,-0.13005l0.23524,-0.47049l0.03828,-0.04466l0.01712,-0.05627l0.20776,-0.34626l0.02586,-0.02586l0.0123,-0.03444l0.26639,-0.39958c0.10149,-0.23431 0.20374,-0.46515 0.30557,-0.69056c-0.5888,-0.42586 -0.97173,-1.09993 -0.97173,-2.03978c0,-1.60804 1.02197,-2.78667 2.29152,-3.412c0.27158,-0.38458 0.71953,-0.63572 1.22613,-0.63572c0.22223,0 0.43318,0.04833 0.6229,0.13505c1.56667,-0.10043 2.97912,0.64325 2.97912,2.43234l0.04479,0.17914c0,1.33447 -0.64162,2.35084 -1.54085,3.01103z" fill="#000000"/></g></g></svg>